<svg xmlns="http://www.w3.org/2000/svg" style="display: none;">
  <symbol id="logomark" viewBox="0 0 382 382">
    <path d="M190.69 0c105.245 0 190.693 85.446 190.693 190.69 0 105.245-85.448 190.691-190.693 190.691C85.446 381.381 0 295.935 0 190.69 0 85.446 85.446 0 190.69 0zM65.14 219.94c-8.099-3.52-17.532.198-21.051 8.297-3.52 8.099.198 17.532 8.297 21.051l114.088 49.577c8.099 3.519 17.531-.199 21.051-8.298 3.519-8.099-.199-17.532-8.298-21.051L65.14 219.94zm266.523-19.688c5.76-6.698 4.99-16.808-1.71-22.563-6.7-5.754-16.808-4.988-22.563 1.71l-81.064 94.361c-5.754 6.698-4.988 16.808 1.71 22.563 6.699 5.754 16.809 4.988 22.563-1.71l81.064-94.361zM155.682 79.529c-.67-8.806-8.363-15.41-17.168-14.74-8.806.67-15.41 8.363-14.74 17.168l10.148 133.317c.67 8.806 8.363 15.41 17.168 14.74 8.805-.67 15.41-8.363 14.74-17.168L155.682 79.529zm146.841 41.72c3.918-7.914.673-17.52-7.241-21.437-7.914-3.918-17.519-.674-21.437 7.24l-31.598 63.831c-3.918 7.914-.673 17.52 7.241 21.438 7.914 3.917 17.52.673 21.437-7.241l31.598-63.831zm-70.112-50.626c1.157-8.755-5.012-16.802-13.767-17.958-8.754-1.156-16.801 5.012-17.957 13.767l-11.619 87.959c-1.156 8.754 5.012 16.801 13.767 17.957 8.755 1.157 16.801-5.012 17.958-13.767l11.618-87.958z" fill="currentColor"/>
  </symbol>
</svg>
